{"glyphs":{":":{"x_min":0,"x_max":230,"ha":230,"o":"m 116 429 b 91 409 69 387 50 357 b 69 329 91 307 117 287 b 143 305 164 328 180 355 b 163 383 144 406 116 429 z m 116 122 b 91 102 69 79 50 50 b 69 22 91 0 117 -21 b 143 -3 164 21 180 48 b 163 76 144 98 116 122 z"},"$":{"x_min":0,"x_max":512,"ha":512,"o":"m 287 84 l 287 242 b 314 233 339 224 357 213 b 384 197 406 163 390 134 b 376 109 332 92 287 84 z m 239 79 b 235 78 231 78 227 78 b 181 78 139 92 118 101 b 96 72 82 57 67 22 b 90 11 144 -5 188 -5 b 206 -5 223 -4 239 -2 l 239 -81 b 256 -78 271 -71 287 -59 l 287 8 b 288 9 290 9 291 10 b 357 35 406 79 440 144 b 453 169 464 233 415 275 b 384 302 335 322 287 339 l 287 502 b 296 502 305 502 315 502 b 347 502 377 498 401 488 b 415 513 422 535 429 562 b 386 583 332 588 287 584 l 287 659 b 269 656 254 648 239 636 l 239 576 b 233 574 228 572 223 570 b 161 544 110 500 84 442 b 73 415 69 361 118 319 b 150 291 195 273 239 257 z m 239 499 l 239 356 b 212 366 187 376 168 386 b 140 403 115 429 131 449 b 158 482 195 495 239 499 z"},"?":{"x_min":0,"x_max":408,"ha":408,"o":"m 112 562 b 94 541 82 518 71 488 b 148 485 256 481 263 423 b 271 360 156 329 156 267 b 156 228 166 212 192 186 b 222 199 250 218 273 240 b 240 278 227 297 276 334 b 320 367 354 416 350 456 b 340 554 210 566 112 562 z m 205 122 b 181 102 159 79 140 50 b 158 22 181 0 207 -21 b 232 -3 253 21 270 48 b 253 76 234 98 205 122 z"},"<":{"x_min":0,"x_max":432,"ha":432,"o":"m 25 228 l 346 32 b 368 56 381 78 390 108 l 106 275 l 361 437 b 374 464 383 495 386 528 l 50 311 b 36 283 28 256 25 228 z"},"'":{"x_min":0,"x_max":171,"ha":171,"o":"m 128 665 b 102 647 78 624 59 592 b 93 526 61 443 29 352 b 33 348 43 343 50 343 b 119 432 216 580 128 665 z"},"=":{"x_min":0,"x_max":643,"ha":643,"o":"m 127 218 b 112 196 105 172 100 148 l 517 148 b 529 167 538 191 543 218 z m 127 372 b 112 351 105 327 100 302 l 517 302 b 529 322 538 346 543 372 z"},"a":{"x_min":0,"x_max":422,"ha":422,"o":"m 278 48 l 289 0 l 407 0 l 407 30 l 362 34 l 348 48 l 348 289 b 348 373 311 409 223 409 b 118 409 55 366 55 315 b 55 295 62 289 81 289 l 138 289 l 138 359 b 161 368 181 372 202 372 b 262 372 278 345 278 279 l 278 252 b 112 212 35 188 35 101 b 35 38 76 -6 142 -6 b 182 -6 226 12 278 48 z m 278 77 b 237 52 202 39 175 39 b 133 39 108 67 108 108 b 108 168 161 191 278 223 z"},"L":{"x_min":0,"x_max":433,"ha":433,"o":"m 22 0 l 422 0 l 422 152 l 378 152 l 364 52 l 352 38 l 164 38 l 164 509 l 178 521 l 226 526 l 226 559 l 22 559 l 22 526 l 75 521 l 89 509 l 89 50 l 75 38 l 22 34 z"},"3":{"x_min":0,"x_max":431,"ha":431,"o":"m 136 586 b 116 564 102 540 89 507 b 168 509 259 507 270 433 b 277 387 214 344 157 331 b 147 310 143 290 144 267 b 238 267 328 253 323 168 b 319 96 258 80 207 77 b 165 74 119 96 102 104 b 78 82 59 56 46 24 b 81 4 135 -12 176 -10 b 248 -6 298 25 344 83 b 387 137 397 204 384 254 b 370 304 315 333 277 337 b 307 361 326 384 339 418 b 354 457 346 516 317 548 b 271 598 197 597 136 586 z"},";":{"x_min":0,"x_max":230,"ha":230,"o":"m 129 122 b 105 105 78 79 60 49 b 94 -17 80 -85 48 -177 b 52 -180 63 -184 69 -185 b 138 -97 217 38 129 122 z m 116 429 b 91 409 69 387 50 357 b 69 329 92 307 118 287 b 143 305 164 328 180 355 b 163 383 145 406 116 429 z"},"J":{"x_min":0,"x_max":370,"ha":370,"o":"m 226 509 l 226 210 b 226 89 197 30 118 30 b 109 30 99 31 88 33 l 77 44 l 57 149 l 10 149 l 10 10 b 48 -3 84 -10 119 -10 b 247 -10 301 62 301 213 l 301 509 l 315 521 l 367 526 l 367 559 l 156 559 l 156 526 l 212 521 z"},"V":{"x_min":0,"x_max":515,"ha":515,"o":"m -19 559 l -19 526 l 34 516 l 230 -4 l 288 -4 l 479 516 l 531 526 l 531 559 l 365 559 l 365 526 l 417 521 l 425 509 l 274 89 l 118 509 l 127 521 l 175 526 l 175 559 z"},"\"":{"x_min":0,"x_max":336,"ha":336,"o":"m 128 665 b 100 643 77 621 59 592 b 93 526 61 443 29 352 b 33 348 43 343 50 343 b 119 432 216 580 128 665 z m 293 665 b 268 645 243 622 224 592 b 258 526 226 443 194 352 b 198 347 209 343 215 343 b 284 432 381 580 293 665 z"},"7":{"x_min":0,"x_max":426,"ha":426,"o":"m 405 578 l 148 578 b 125 578 125 600 122 621 b 84 573 60 538 38 488 l 322 488 b 284 383 185 265 150 198 b 109 123 94 36 127 -19 b 158 2 182 28 205 62 b 201 129 215 169 248 226 b 305 324 357 394 388 487 b 398 520 403 548 405 578 z"},"S":{"x_min":0,"x_max":463,"ha":463,"o":"m 50 17 b 88 0 140 -10 200 -10 b 333 -10 416 59 416 158 b 416 194 403 225 379 249 b 341 287 296 300 253 318 b 177 350 137 371 137 427 b 137 488 179 528 250 528 b 279 528 304 522 325 510 l 338 496 l 350 417 l 393 417 l 393 546 b 344 562 298 569 252 569 b 133 569 59 503 59 409 b 59 328 108 298 200 258 b 291 218 339 203 339 134 b 339 76 294 34 213 34 b 176 34 144 41 120 53 l 109 68 l 99 163 l 50 163 z"},"}":{"x_min":0,"x_max":405,"ha":405,"o":"m 53 586 l 53 555 b 137 552 159 528 159 455 l 159 388 b 159 300 185 259 268 242 b 190 224 159 184 159 101 l 159 32 b 159 -52 148 -78 53 -79 l 53 -112 l 73 -112 b 192 -112 226 -74 226 41 l 226 112 b 226 194 252 224 328 224 b 334 224 341 223 348 223 l 348 260 b 340 259 332 259 326 259 b 251 259 226 289 226 367 l 226 452 b 226 547 178 586 64 586 z"},"Z":{"x_min":0,"x_max":488,"ha":488,"o":"m 56 559 l 56 430 l 102 430 l 115 508 l 131 519 l 353 519 l 38 34 l 38 0 l 449 0 l 449 151 l 404 151 l 389 52 l 380 41 l 128 41 l 445 524 l 445 559 z"},"x":{"x_min":0,"x_max":419,"ha":419,"o":"m 15 401 l 15 370 l 66 361 l 178 198 l 58 38 l 10 31 l 10 0 l 168 0 l 168 31 l 120 37 l 116 47 l 201 168 l 278 43 l 274 37 l 239 31 l 239 0 l 417 0 l 417 31 l 367 38 l 244 216 l 354 362 l 401 370 l 401 401 l 251 401 l 251 370 l 291 365 l 298 354 l 222 248 l 152 357 l 156 365 l 194 370 l 194 401 z"},")":{"x_min":0,"x_max":294,"ha":294,"o":"m 135 -60 b 178 49 230 185 223 330 b 218 451 187 523 112 618 b 84 596 70 574 56 537 b 94 478 172 369 161 251 b 148 117 108 60 38 -83 b 71 -80 100 -78 135 -60 z"},"&":{"x_min":0,"x_max":587,"ha":587,"o":"m 230 325 b 179 370 152 406 152 449 b 152 497 186 531 230 531 b 280 531 312 495 312 440 b 312 386 286 351 230 325 z m 259 298 b 343 337 381 378 381 444 b 381 513 326 569 238 569 b 150 569 86 508 86 431 b 86 386 109 348 154 303 b 81 270 44 221 44 154 b 44 62 118 -10 222 -10 b 277 -10 330 14 385 62 l 422 20 l 422 0 l 569 0 l 569 34 l 493 38 l 428 113 b 460 156 482 203 498 255 l 558 263 l 558 297 l 388 297 l 388 263 l 434 257 l 449 241 b 443 210 428 178 402 142 z m 186 279 l 359 90 b 323 56 286 40 243 40 b 172 40 121 96 121 172 b 121 217 142 249 186 279 z"},"_":{"x_min":0,"x_max":417,"ha":417,"o":"m 0 -148 l 0 -197 l 417 -197 l 417 -148 z"},"v":{"x_min":0,"x_max":412,"ha":412,"o":"m -4 401 l -4 370 l 47 365 l 181 0 l 228 0 l 373 363 l 422 370 l 422 401 l 275 401 l 275 370 l 320 367 l 327 353 l 220 81 l 122 353 l 132 367 l 177 370 l 177 401 z"},"O":{"x_min":0,"x_max":609,"ha":609,"o":"m 305 573 b 233 573 171 548 121 500 b 65 446 36 371 36 280 b 36 189 65 113 122 58 b 170 12 234 -13 305 -13 b 402 -13 485 35 532 115 b 560 163 574 218 574 280 b 574 371 544 446 488 500 b 438 548 377 573 305 573 z m 305 528 b 412 528 487 435 487 280 b 487 125 412 31 305 31 b 197 31 122 125 122 280 b 122 437 197 528 305 528 z"},"(":{"x_min":0,"x_max":305,"ha":305,"o":"m 172 595 b 129 485 77 349 84 204 b 89 84 120 11 195 -84 b 223 -61 239 -36 253 1 b 215 60 137 169 148 288 b 161 421 202 478 272 621 b 238 618 207 612 172 595 z"},"C":{"x_min":0,"x_max":527,"ha":527,"o":"m 490 19 l 490 151 l 443 151 l 425 58 l 412 45 b 387 38 362 34 339 34 b 204 34 122 128 122 286 b 122 435 202 525 327 525 b 359 525 389 518 420 503 l 431 488 l 443 412 l 490 412 l 490 541 b 429 560 374 569 325 569 b 152 569 36 453 36 280 b 36 171 91 74 180 23 b 218 2 267 -10 322 -10 b 378 -10 435 0 490 19 z"},"W":{"x_min":0,"x_max":773,"ha":773,"o":"m 192 0 l 248 0 l 387 456 l 528 0 l 584 0 l 717 514 l 772 526 l 772 559 l 600 559 l 600 526 l 656 516 l 665 504 l 564 113 l 428 559 l 369 559 l 235 122 l 128 508 l 134 519 l 187 526 l 187 559 l 0 559 l 0 526 l 52 514 z"},"A":{"x_min":0,"x_max":532,"ha":532,"o":"m 237 566 l 42 44 l -7 34 l -7 0 l 157 0 l 157 34 l 102 38 l 94 50 l 153 209 l 350 209 l 410 50 l 404 38 l 352 34 l 352 0 l 542 0 l 542 34 l 492 44 l 292 566 z m 250 478 l 336 248 l 168 248 z"},"f":{"x_min":0,"x_max":268,"ha":268,"o":"m 24 0 l 218 0 l 218 30 l 167 34 l 152 48 l 152 351 l 269 351 l 269 390 l 153 390 l 153 451 b 153 521 172 564 208 581 l 283 531 b 305 537 318 552 318 572 b 318 599 291 620 252 620 b 154 620 83 538 83 399 l 83 390 l 30 378 l 30 351 l 83 351 l 83 48 l 68 34 l 24 30 z"},"Q":{"x_min":0,"x_max":609,"ha":609,"o":"m 345 -9 b 488 14 578 125 578 281 b 578 372 548 448 491 502 b 441 549 377 574 305 574 b 233 574 170 549 120 502 b 62 448 32 372 32 281 b 32 124 122 12 266 -9 b 266 -102 318 -147 424 -147 b 458 -147 498 -142 542 -133 l 542 -99 b 512 -106 486 -108 463 -108 b 387 -108 348 -75 345 -9 z m 305 32 b 196 32 121 127 121 281 b 121 438 195 529 305 529 b 415 529 489 436 489 281 b 489 127 415 32 305 32 z"},"w":{"x_min":0,"x_max":642,"ha":642,"o":"m -2 401 l -2 370 l 49 365 l 160 0 l 212 0 l 324 316 l 425 0 l 477 0 l 596 363 l 642 370 l 642 401 l 495 401 l 495 370 l 540 367 l 547 353 l 462 82 l 363 401 l 312 401 l 201 82 l 125 353 l 135 367 l 179 370 l 179 401 z"},"-":{"x_min":0,"x_max":385,"ha":385,"o":"m 50 216 l 314 216 b 328 240 338 268 344 298 l 84 298 b 67 274 56 244 50 216 z"},"E":{"x_min":0,"x_max":480,"ha":480,"o":"m 28 0 l 457 0 l 457 136 l 413 136 l 399 52 l 388 38 l 164 38 l 164 272 l 301 272 l 312 259 l 321 199 l 360 199 l 360 382 l 321 382 l 312 322 l 301 310 l 164 310 l 164 521 l 357 521 l 368 508 l 380 438 l 427 438 l 427 559 l 28 559 l 28 526 l 75 521 l 89 509 l 89 50 l 75 38 l 28 34 z"},"s":{"x_min":0,"x_max":333,"ha":333,"o":"m 287 391 b 258 403 226 409 189 409 b 94 409 42 366 42 292 b 42 237 78 210 149 178 b 204 153 234 138 234 95 b 234 56 204 28 156 28 b 132 28 108 34 85 48 l 75 118 l 35 118 l 35 10 b 64 -1 101 -8 143 -8 b 242 -8 299 40 299 118 b 299 148 288 173 268 189 b 240 212 208 223 179 238 b 132 260 108 278 108 313 b 108 351 133 373 178 373 b 198 373 218 368 239 356 l 246 297 l 287 297 z"},">":{"x_min":0,"x_max":432,"ha":432,"o":"m 407 319 l 86 512 b 64 488 51 466 42 436 l 326 272 l 71 107 b 57 79 48 49 46 16 l 382 236 b 396 263 403 291 407 319 z"},"l":{"x_min":0,"x_max":235,"ha":235,"o":"m 23 0 l 218 0 l 218 30 l 171 34 l 156 48 l 156 613 l 124 613 l 22 583 l 22 558 l 87 558 l 87 48 l 72 34 l 23 30 z"},"8":{"x_min":0,"x_max":454,"ha":454,"o":"m 192 276 b 259 246 356 208 346 135 b 342 99 306 68 252 67 b 201 67 136 93 127 152 b 120 205 165 246 192 276 z m 259 337 b 212 361 157 378 146 431 b 138 474 175 515 209 532 b 279 525 321 484 320 433 b 318 391 297 372 259 337 z m 220 591 b 159 573 99 532 83 463 b 69 403 79 345 149 299 b 113 259 55 215 54 150 b 53 45 133 -11 219 -11 b 320 -11 398 65 408 164 b 417 245 352 292 306 315 b 343 345 394 390 394 457 b 394 546 329 595 220 591 z"},"\\":{"x_min":0,"x_max":427,"ha":427,"o":"m 308 -29 b 336 -36 373 -36 402 -29 b 270 223 223 347 118 607 b 88 613 57 614 25 607 b 148 372 216 205 308 -29 z"},"e":{"x_min":0,"x_max":409,"ha":409,"o":"m 373 88 b 326 57 284 40 242 40 b 158 40 102 103 102 210 l 102 219 l 372 219 b 373 228 373 237 373 245 b 373 348 314 409 223 409 b 112 409 31 323 31 198 b 31 75 107 -8 217 -8 b 269 -8 323 9 373 42 z m 299 254 l 107 254 b 112 325 159 372 212 372 b 268 372 299 335 299 268 z"},"b":{"x_min":0,"x_max":449,"ha":449,"o":"m 109 613 l 7 583 l 7 558 l 72 558 l 72 0 l 178 0 b 338 0 420 76 420 219 b 420 332 353 409 255 409 b 218 409 181 399 141 380 l 141 613 z m 141 38 l 141 352 b 168 360 193 365 214 365 b 298 365 345 308 345 203 b 345 88 295 38 187 38 b 182 38 167 38 141 38 z"},"%":{"x_min":0,"x_max":634,"ha":634,"o":"m 424 276 b 445 285 467 284 484 269 b 505 250 517 214 521 174 b 524 137 525 100 509 73 b 499 55 476 43 451 69 b 430 90 415 137 412 183 b 409 220 409 244 424 276 z m 442 350 b 385 310 362 254 356 194 b 350 132 360 68 383 34 b 403 5 438 -12 462 -12 b 507 -12 546 33 564 84 b 587 147 581 214 573 255 b 559 329 509 361 442 350 z m 129 516 b 149 525 171 524 189 509 b 210 490 221 454 225 414 b 228 377 229 340 213 313 b 203 295 180 283 155 309 b 135 330 119 377 116 423 b 113 460 113 484 129 516 z m 146 590 b 89 550 66 494 60 434 b 54 372 64 308 87 274 b 107 245 142 228 167 228 b 211 228 251 273 269 324 b 291 387 285 454 277 495 b 263 569 213 601 146 590 z m 459 594 b 336 371 247 213 96 -9 b 123 -19 151 -20 179 -17 b 318 231 382 349 543 586 b 519 595 485 599 459 594 z"},"m":{"x_min":0,"x_max":702,"ha":702,"o":"m 378 353 b 359 390 328 409 287 409 b 252 409 208 392 153 359 l 153 405 l 122 405 l 25 375 l 25 349 l 84 349 l 84 48 l 70 34 l 25 30 l 25 0 l 208 0 l 208 30 l 168 34 l 153 48 l 153 327 b 190 345 221 354 248 354 b 298 354 322 327 322 268 l 322 48 l 308 34 l 268 30 l 268 0 l 445 0 l 445 30 l 406 34 l 391 48 l 391 327 b 427 344 458 354 485 354 b 537 354 560 327 560 268 l 560 48 l 545 34 l 506 30 l 506 0 l 688 0 l 688 30 l 643 34 l 629 48 l 629 282 b 629 365 588 409 522 409 b 488 409 441 390 378 353 z"},"#":{"x_min":0,"x_max":568,"ha":568,"o":"m 242 606 l 203 433 l 118 433 b 104 412 101 396 96 372 l 189 372 b 176 320 163 269 148 217 l 64 217 b 50 195 46 180 42 155 l 131 155 b 113 97 94 37 71 -29 b 104 -37 130 -35 160 -29 l 202 155 l 317 155 b 299 97 280 37 257 -29 b 289 -37 316 -35 346 -29 l 388 155 l 467 155 b 479 175 484 190 489 217 l 403 217 b 415 269 428 319 443 372 l 521 372 b 533 392 538 407 543 433 l 461 433 b 477 486 495 542 518 606 b 488 613 455 614 428 606 l 389 433 l 275 433 b 291 486 309 542 332 606 b 302 613 269 614 242 606 z m 257 372 l 375 372 b 362 320 349 269 334 217 l 217 217 b 229 269 242 319 257 372 z"},",":{"x_min":0,"x_max":218,"ha":218,"o":"m 129 122 b 105 105 78 79 60 49 b 94 -17 80 -85 48 -177 b 52 -180 63 -184 69 -185 b 138 -97 217 38 129 122 z"},"n":{"x_min":0,"x_max":473,"ha":473,"o":"m 25 0 l 208 0 l 208 30 l 168 34 l 153 48 l 153 327 b 189 345 220 354 247 354 b 308 354 331 329 331 268 l 331 48 l 317 34 l 277 30 l 277 0 l 459 0 l 459 30 l 414 34 l 400 48 l 400 282 b 400 366 360 409 288 409 b 252 409 209 390 153 359 l 153 405 l 122 405 l 25 375 l 25 349 l 84 349 l 84 48 l 70 34 l 25 30 z"},"h":{"x_min":0,"x_max":470,"ha":470,"o":"m 118 613 l 16 583 l 16 558 l 80 558 l 80 48 l 66 34 l 21 30 l 21 0 l 203 0 l 203 30 l 164 34 l 149 48 l 149 327 b 185 345 216 354 242 354 b 304 354 327 329 327 268 l 327 48 l 312 34 l 273 30 l 273 0 l 455 0 l 455 30 l 411 34 l 396 48 l 396 282 b 396 366 357 409 284 409 b 248 409 205 390 149 359 l 149 613 z"},"z":{"x_min":0,"x_max":390,"ha":390,"o":"m 38 0 l 359 0 l 359 122 l 317 122 l 308 52 l 295 38 l 116 38 l 347 369 l 347 401 l 46 401 l 46 285 l 85 285 l 94 349 l 106 362 l 260 362 l 38 42 z"},"B":{"x_min":0,"x_max":503,"ha":503,"o":"m 28 559 l 28 526 l 75 521 l 89 509 l 89 50 l 75 38 l 28 34 l 28 0 l 248 0 b 389 0 465 58 465 163 b 465 245 409 296 310 297 b 390 318 431 361 431 424 b 431 516 368 559 240 559 z m 164 306 l 164 520 b 185 521 201 522 212 522 b 303 522 348 488 348 421 b 348 340 300 305 196 305 b 186 305 175 305 164 306 z m 164 42 l 164 264 b 197 268 224 269 246 269 b 338 269 383 233 383 158 b 383 73 332 39 220 39 b 202 39 184 40 164 42 z"},"K":{"x_min":0,"x_max":509,"ha":509,"o":"m 28 0 l 230 0 l 230 34 l 178 38 l 164 50 l 164 249 l 226 249 l 385 25 l 385 0 l 522 0 l 522 34 l 462 38 l 272 310 l 448 518 l 502 526 l 502 559 l 329 559 l 329 526 l 376 521 l 381 509 l 196 283 l 164 283 l 164 509 l 178 521 l 230 526 l 230 559 l 28 559 l 28 526 l 75 521 l 89 509 l 89 50 l 75 38 l 28 34 z"},"R":{"x_min":0,"x_max":538,"ha":538,"o":"m 28 559 l 28 526 l 75 521 l 89 509 l 89 50 l 75 38 l 28 34 l 28 0 l 226 0 l 226 34 l 178 38 l 164 50 l 164 248 b 179 249 193 250 206 250 b 282 250 314 228 337 160 b 354 107 358 52 398 18 b 417 1 444 -7 482 -7 b 501 -7 522 -4 547 1 l 547 32 l 539 32 b 476 32 449 42 431 92 b 416 131 415 177 392 215 b 375 242 347 260 306 271 b 396 291 441 338 441 409 b 441 512 375 559 240 559 z m 164 521 l 204 521 b 308 521 358 489 358 402 b 358 320 310 288 210 288 b 205 288 190 288 164 288 z"},"T":{"x_min":0,"x_max":498,"ha":498,"o":"m 13 559 l 13 431 l 59 431 l 71 508 l 82 521 l 211 521 l 211 50 l 196 38 l 140 34 l 140 0 l 358 0 l 358 34 l 302 38 l 287 50 l 287 521 l 415 521 l 427 508 l 438 431 l 484 431 l 484 559 z"},"P":{"x_min":0,"x_max":465,"ha":465,"o":"m 28 0 l 238 0 l 238 34 l 178 38 l 164 50 l 164 214 b 190 212 211 210 227 210 b 361 210 442 282 442 389 b 442 516 371 559 211 559 l 21 559 l 21 526 l 75 521 l 89 509 l 89 50 l 75 38 l 28 34 z m 164 254 l 164 519 b 179 521 194 521 208 521 b 314 521 365 480 365 391 b 365 299 314 250 219 250 b 207 250 188 252 164 254 z"},"|":{"x_min":0,"x_max":417,"ha":417,"o":"m 182 637 l 182 -197 l 234 -197 l 234 637 z"},"t":{"x_min":0,"x_max":278,"ha":278,"o":"m 73 351 l 73 82 b 73 22 91 -2 160 -2 b 192 -2 230 3 269 16 l 269 47 b 250 42 231 40 212 40 b 153 40 142 68 142 131 l 142 351 l 269 351 l 269 390 l 142 390 l 142 478 l 112 478 l 76 401 l 21 377 l 21 351 z"},"M":{"x_min":0,"x_max":722,"ha":722,"o":"m 26 0 l 202 0 l 202 34 l 151 41 l 136 57 l 136 512 l 326 0 l 362 0 l 559 520 l 559 50 l 551 38 l 496 34 l 496 0 l 695 0 l 695 34 l 642 38 l 632 50 l 632 509 l 642 521 l 695 526 l 695 559 l 517 559 l 517 533 l 358 118 l 202 537 l 202 559 l 25 559 l 25 526 l 80 521 l 91 509 l 91 57 l 76 41 l 26 34 z"},"g":{"x_min":0,"x_max":436,"ha":436,"o":"m 308 386 b 276 402 245 409 213 409 b 115 409 52 352 52 272 b 52 209 91 160 155 146 b 128 114 115 88 115 67 b 115 53 118 41 123 29 b 67 19 33 -21 33 -74 b 33 -141 88 -182 184 -182 b 248 -182 305 -162 349 -127 b 382 -100 399 -64 399 -33 b 399 28 356 54 258 69 l 178 82 b 177 91 176 98 176 102 b 176 115 179 128 185 139 l 199 139 b 296 139 358 195 358 269 b 358 298 351 322 335 347 l 427 347 l 427 386 z m 205 377 b 253 377 287 338 287 274 b 287 212 253 172 205 172 b 157 172 123 212 123 274 b 123 338 157 377 205 377 z m 172 25 l 252 10 b 311 -1 338 -10 338 -55 b 338 -102 288 -143 213 -143 b 145 -143 100 -105 100 -57 b 100 -20 126 11 172 25 z"},"j":{"x_min":0,"x_max":222,"ha":222,"o":"m 91 349 l 91 -13 b 91 -90 78 -132 47 -142 l -34 -93 b -55 -102 -65 -118 -65 -137 b -65 -163 -44 -182 -8 -182 b 38 -182 80 -162 112 -128 b 158 -78 160 -16 160 70 l 160 405 l 128 405 l 32 375 l 32 349 z m 73 542 b 73 515 95 494 122 494 b 148 494 170 515 170 542 b 170 568 148 590 122 590 b 95 590 73 569 73 542 z"},"i":{"x_min":0,"x_max":233,"ha":233,"o":"m 128 590 b 102 590 80 569 80 542 b 80 515 102 494 128 494 b 155 494 177 515 177 542 b 177 568 155 590 128 590 z m 125 405 l 29 375 l 29 349 l 88 349 l 88 48 l 73 34 l 29 30 l 29 0 l 217 0 l 217 30 l 172 34 l 157 48 l 157 405 z"},"y":{"x_min":0,"x_max":412,"ha":412,"o":"m -1 401 l -1 370 l 50 365 l 190 3 b 169 -56 145 -98 122 -122 l 42 -90 b 28 -103 21 -118 21 -135 b 21 -162 43 -182 78 -182 b 132 -182 172 -136 212 -42 l 378 363 l 427 370 l 427 401 l 278 401 l 278 370 l 323 367 l 330 353 l 226 94 l 126 353 l 136 367 l 180 370 l 180 401 z"},"@":{"x_min":0,"x_max":785,"ha":785,"o":"m 582 407 l 538 407 l 522 388 b 494 402 468 410 441 410 b 382 410 321 378 280 323 b 250 282 233 233 233 181 b 233 99 278 48 337 48 b 375 48 414 71 459 118 l 459 110 b 459 68 481 46 521 46 b 574 46 638 82 679 147 b 710 194 726 249 726 311 b 726 470 617 577 440 577 b 344 577 250 542 184 482 b 104 408 63 316 63 205 b 63 107 95 26 157 -33 b 221 -95 304 -128 398 -128 b 476 -128 562 -103 651 -54 l 639 -26 b 569 -67 494 -87 420 -87 b 242 -87 122 32 122 215 b 122 313 157 393 226 458 b 285 512 361 541 452 541 b 592 541 688 444 688 314 b 688 244 666 179 629 136 b 605 107 578 92 556 92 b 535 92 521 107 521 128 b 521 138 522 152 528 174 l 560 318 b 567 349 572 379 582 407 z m 461 375 l 495 328 l 461 153 b 432 117 403 98 373 98 b 329 98 304 130 304 191 b 304 299 366 377 442 377 b 448 377 455 376 461 375 z"},".":{"x_min":0,"x_max":230,"ha":230,"o":"m 116 123 b 91 102 69 81 50 51 b 68 22 92 1 118 -20 b 142 -2 163 22 180 48 b 162 77 144 99 116 123 z"},"p":{"x_min":0,"x_max":459,"ha":459,"o":"m 19 -182 l 215 -182 l 215 -152 l 162 -148 l 148 -134 l 148 5 b 178 0 204 -2 225 -2 b 348 -2 430 82 430 214 b 430 331 362 409 270 409 b 231 409 192 392 148 359 l 148 405 l 116 405 l 19 375 l 19 349 l 78 349 l 78 -134 l 64 -148 l 19 -152 z m 148 48 l 148 328 b 179 347 207 357 235 357 b 308 357 357 299 357 203 b 357 101 300 35 218 35 b 198 35 175 39 148 48 z"},"X":{"x_min":0,"x_max":500,"ha":500,"o":"m 9 559 l 9 526 l 64 515 l 215 279 l 48 45 l -8 34 l -8 0 l 170 0 l 170 34 l 114 39 l 109 54 l 241 241 l 358 52 l 352 40 l 297 34 l 297 0 l 508 0 l 508 34 l 451 44 l 289 300 l 442 518 l 495 526 l 495 559 l 325 559 l 325 526 l 373 518 l 381 508 l 262 339 l 153 511 l 160 521 l 210 526 l 210 559 z"},"*":{"x_min":0,"x_max":455,"ha":455,"o":"m 380 406 l 248 335 l 280 484 b 245 503 210 502 175 484 l 208 333 l 75 406 b 53 384 39 353 43 306 l 197 293 l 82 188 b 101 158 131 138 167 125 l 226 260 l 287 126 b 324 138 353 158 372 188 l 258 293 l 412 306 b 417 355 402 384 380 406 z"},"Y":{"x_min":0,"x_max":488,"ha":488,"o":"m -11 559 l -11 526 l 40 518 l 206 227 l 206 50 l 192 38 l 136 34 l 136 0 l 352 0 l 352 34 l 295 38 l 282 50 l 282 238 l 455 515 l 506 526 l 506 559 l 336 559 l 336 526 l 387 517 l 394 505 l 254 282 l 127 512 l 135 521 l 182 526 l 182 559 z"},"c":{"x_min":0,"x_max":372,"ha":372,"o":"m 354 35 l 354 78 b 319 55 285 43 248 43 b 162 43 107 104 107 207 b 107 312 158 376 229 376 b 243 376 257 372 269 364 l 269 296 b 282 288 294 283 307 283 b 335 283 353 301 353 328 b 353 376 308 409 228 409 b 112 409 31 325 31 201 b 31 78 105 -6 218 -6 b 263 -6 308 8 354 35 z"},"!":{"x_min":0,"x_max":296,"ha":296,"o":"m 149 122 b 124 102 102 79 83 50 b 102 22 125 0 151 -21 b 176 -3 197 21 213 48 b 196 76 178 98 149 122 z m 182 580 b 144 552 118 522 95 483 b 108 421 124 294 126 187 b 147 201 163 215 181 236 b 213 332 204 526 182 580 z"},"/":{"x_min":0,"x_max":427,"ha":427,"o":"m 308 606 b 216 372 148 206 25 -29 b 57 -37 88 -35 118 -29 b 223 231 270 355 402 606 b 373 613 336 614 308 606 z"},"[":{"x_min":0,"x_max":388,"ha":388,"o":"m 180 551 l 310 551 b 329 572 349 606 356 633 l 164 633 b 144 608 128 578 116 545 l 116 -112 l 299 -112 b 317 -89 337 -58 343 -29 l 180 -29 z"},"6":{"x_min":0,"x_max":468,"ha":468,"o":"m 163 276 b 214 312 289 306 328 254 b 365 205 360 124 326 83 b 286 62 207 64 166 112 b 122 164 135 227 163 276 z m 249 566 b 249 566 151 422 91 310 b 57 244 38 172 73 98 b 103 33 172 -7 248 -7 b 278 -7 300 -2 319 14 b 368 54 393 79 413 148 b 431 208 420 269 396 308 b 373 347 333 368 295 368 b 267 367 238 362 195 342 b 271 452 287 483 356 594 b 318 591 288 583 249 566 z"},"r":{"x_min":0,"x_max":318,"ha":318,"o":"m 25 0 l 226 0 l 226 30 l 168 34 l 153 48 l 153 286 b 188 326 217 347 244 347 b 262 347 276 340 287 327 l 313 327 l 313 398 b 296 406 280 409 263 409 b 257 409 249 409 242 408 b 212 383 182 357 153 327 l 153 405 l 122 405 l 25 375 l 25 349 l 84 349 l 84 48 l 69 34 l 25 30 z"},"2":{"x_min":0,"x_max":411,"ha":411,"o":"m 113 582 b 93 555 82 534 73 502 b 114 511 191 523 240 484 b 283 450 283 376 224 319 b 158 257 103 208 73 138 b 52 88 48 51 51 0 l 330 0 b 351 28 365 54 373 91 l 130 91 b 133 133 164 180 192 210 b 245 267 298 296 334 350 b 373 408 373 489 329 536 b 272 598 199 599 113 582 z"},"{":{"x_min":0,"x_max":405,"ha":405,"o":"m 348 586 l 338 586 b 223 586 176 547 176 452 l 176 367 b 176 289 151 259 76 259 b 69 259 62 259 54 260 l 54 223 b 61 223 68 224 73 224 b 150 224 176 194 176 112 l 176 41 b 176 -75 209 -112 328 -112 l 348 -112 l 348 -79 b 254 -78 242 -52 242 32 l 242 101 b 242 184 212 224 133 242 b 217 259 242 300 242 388 l 242 455 b 242 528 265 552 348 555 z"},"9":{"x_min":0,"x_max":452,"ha":452,"o":"m 154 493 b 195 518 263 516 307 472 b 343 435 357 366 321 308 b 271 274 219 274 170 301 b 113 334 106 427 154 493 z m 199 587 b 141 551 91 504 66 431 b 38 348 57 251 146 216 b 172 207 199 210 218 216 b 248 225 269 233 290 243 b 233 154 152 37 127 -16 b 170 -11 188 -6 224 11 b 290 114 343 205 381 270 b 411 323 427 408 404 474 b 374 560 283 607 199 587 z"}," ":{"x_min":0,"x_max":350,"ha":350,"o":""},"I":{"x_min":0,"x_max":270,"ha":270,"o":"m 29 0 l 240 0 l 240 34 l 187 38 l 172 50 l 172 509 l 187 521 l 240 526 l 240 559 l 29 559 l 29 526 l 82 521 l 97 509 l 97 50 l 82 38 l 29 34 z"},"H":{"x_min":0,"x_max":615,"ha":615,"o":"m 28 559 l 28 526 l 75 521 l 89 509 l 89 50 l 75 38 l 28 34 l 28 0 l 230 0 l 230 34 l 178 38 l 164 50 l 164 274 l 451 274 l 451 50 l 437 38 l 385 34 l 385 0 l 588 0 l 588 34 l 540 38 l 526 50 l 526 509 l 540 521 l 588 526 l 588 559 l 385 559 l 385 526 l 437 521 l 451 509 l 451 312 l 164 312 l 164 509 l 178 521 l 230 526 l 230 559 z"},"4":{"x_min":0,"x_max":455,"ha":455,"o":"m 276 485 l 276 254 l 103 254 b 123 348 183 438 276 485 z m 362 586 b 288 591 182 527 118 434 b 90 393 64 340 54 255 b 54 222 57 195 64 163 l 276 163 l 276 -21 b 305 -5 326 14 346 38 l 346 163 l 401 163 b 417 191 428 220 434 254 l 346 254 b 346 254 346 467 348 504 b 350 536 356 566 362 586 z"},"~":{"x_min":0,"x_max":694,"ha":694,"o":"m 622 308 b 564 268 516 245 466 245 b 424 245 388 260 348 274 b 311 288 273 301 230 301 b 182 301 129 281 72 242 l 72 188 b 132 229 180 252 229 252 b 281 252 330 230 388 211 b 415 202 441 197 465 197 b 515 197 568 216 622 255 z"},"D":{"x_min":0,"x_max":578,"ha":578,"o":"m 233 559 l 28 559 l 28 526 l 75 521 l 89 509 l 89 50 l 75 38 l 28 34 l 28 0 l 233 0 b 317 0 380 9 437 52 b 505 103 541 181 541 280 b 541 455 431 559 233 559 z m 164 521 l 230 521 b 382 521 457 442 457 280 b 457 118 382 38 230 38 l 164 38 z"},"^":{"x_min":0,"x_max":833,"ha":833,"o":"m 380 595 l 168 365 l 204 365 l 416 542 l 627 365 l 664 365 l 452 595 z"},"0":{"x_min":0,"x_max":485,"ha":485,"o":"m 172 501 b 216 516 263 511 297 479 b 339 440 357 366 360 288 b 362 216 358 143 320 91 b 296 59 246 39 197 92 b 157 135 132 230 132 321 b 132 393 135 440 172 501 z m 205 589 b 110 522 72 429 61 329 b 51 225 68 119 106 63 b 139 13 198 -14 239 -14 b 314 -14 379 61 409 145 b 447 250 436 363 423 431 b 399 554 316 607 205 589 z"},"F":{"x_min":0,"x_max":448,"ha":448,"o":"m 28 0 l 238 0 l 238 34 l 178 38 l 164 50 l 164 263 l 301 263 l 312 251 l 321 190 l 360 190 l 360 374 l 321 374 l 312 313 l 301 302 l 164 302 l 164 521 l 352 521 l 362 508 l 375 429 l 421 429 l 421 559 l 21 559 l 21 526 l 75 521 l 89 509 l 89 50 l 75 38 l 28 34 z"},"`":{"x_min":0,"x_max":417,"ha":417,"o":"m 87 613 l 208 455 l 250 455 l 169 613 z"},"k":{"x_min":0,"x_max":431,"ha":431,"o":"m 21 0 l 203 0 l 203 30 l 164 34 l 149 48 l 149 189 l 198 189 l 310 28 l 310 0 l 440 0 l 440 32 l 387 36 l 240 242 l 354 363 l 408 370 l 408 401 l 249 401 l 249 370 l 287 367 l 292 355 l 165 212 l 149 212 l 149 613 l 118 613 l 16 583 l 16 558 l 80 558 l 80 48 l 66 34 l 21 30 z"},"u":{"x_min":0,"x_max":474,"ha":474,"o":"m 118 409 l 22 378 l 22 352 l 81 352 l 81 119 b 81 36 121 -8 192 -8 b 233 -8 278 11 328 47 l 328 0 l 451 0 l 451 30 l 412 34 l 397 48 l 397 409 l 365 409 l 268 378 l 268 352 l 328 352 l 328 70 b 293 53 262 45 231 45 b 175 45 150 73 150 133 l 150 409 z"},"]":{"x_min":0,"x_max":388,"ha":388,"o":"m 214 -29 l 84 -29 b 65 -51 45 -84 38 -112 l 230 -112 b 250 -86 267 -56 278 -23 l 278 633 l 95 633 b 78 611 58 579 51 551 l 214 551 z"},"U":{"x_min":0,"x_max":578,"ha":578,"o":"m 21 559 l 21 526 l 68 521 l 82 509 l 82 200 b 82 138 87 92 119 53 b 151 15 212 -10 292 -10 b 371 -10 432 15 464 53 b 497 92 501 139 501 200 l 501 503 l 516 518 l 566 526 l 566 559 l 390 559 l 390 526 l 440 518 l 456 503 l 456 208 b 456 94 412 42 308 42 b 201 42 158 94 158 208 l 158 509 l 173 521 l 225 526 l 225 559 z"},"o":{"x_min":0,"x_max":449,"ha":449,"o":"m 224 409 b 112 409 31 325 31 201 b 31 78 112 -8 224 -8 b 336 -8 418 78 418 201 b 418 324 337 409 224 409 z m 224 373 b 292 373 340 308 340 201 b 340 92 292 28 224 28 b 158 28 109 93 109 201 b 109 309 157 373 224 373 z"},"N":{"x_min":0,"x_max":594,"ha":594,"o":"m 24 0 l 200 0 l 200 34 l 150 41 l 135 57 l 135 473 l 452 0 l 508 0 l 508 503 l 522 518 l 572 526 l 572 559 l 398 559 l 398 526 l 448 518 l 462 503 l 462 112 l 178 538 l 178 559 l 22 559 l 22 526 l 75 521 l 90 509 l 90 57 l 75 41 l 24 34 z"},"+":{"x_min":0,"x_max":610,"ha":610,"o":"m 338 76 l 338 232 l 500 232 b 513 252 521 275 527 302 l 338 302 l 338 484 b 312 479 292 470 272 458 l 272 302 l 110 302 b 96 280 88 256 83 232 l 272 232 l 272 49 b 296 54 317 62 338 76 z"},"G":{"x_min":0,"x_max":578,"ha":578,"o":"m 348 268 l 348 234 l 407 230 l 421 218 l 421 45 b 388 38 360 34 336 34 b 205 34 122 128 122 286 b 122 436 202 525 329 525 b 362 525 393 518 424 503 l 436 488 l 448 412 l 495 412 l 495 545 b 440 561 386 569 335 569 b 151 569 36 456 36 280 b 36 171 90 74 180 23 b 218 2 268 -10 323 -10 b 372 -10 430 0 496 19 l 496 218 l 510 230 l 556 234 l 556 268 z"},"q":{"x_min":0,"x_max":442,"ha":442,"o":"m 382 396 b 338 405 298 410 263 410 b 120 410 31 325 31 192 b 31 73 98 -2 195 -2 b 230 -2 268 8 310 28 l 310 -134 l 296 -148 l 243 -152 l 243 -182 l 438 -182 l 438 -152 l 394 -148 l 379 -134 l 379 335 b 379 343 381 363 382 396 z m 310 365 l 310 54 b 277 46 252 42 232 42 b 154 42 106 99 106 202 b 106 311 161 374 247 374 b 264 374 285 371 310 365 z"},"d":{"x_min":0,"x_max":471,"ha":471,"o":"m 319 558 l 319 401 b 293 407 268 410 245 410 b 118 410 30 321 30 188 b 30 71 100 -8 191 -8 b 237 -8 277 9 319 43 l 319 0 l 442 0 l 442 30 l 402 34 l 388 48 l 388 613 l 357 613 l 255 583 l 255 558 z m 319 74 b 288 55 258 45 228 45 b 153 45 103 104 103 202 b 103 306 162 373 246 373 b 266 373 291 368 319 360 z"},"1":{"x_min":0,"x_max":404,"ha":404,"o":"m 255 599 b 186 576 136 547 71 503 b 100 483 120 476 150 456 b 178 437 186 420 186 390 l 186 91 l 91 91 b 72 66 55 35 46 0 l 316 0 b 341 28 356 55 367 91 l 255 91 z"},"5":{"x_min":0,"x_max":432,"ha":432,"o":"m 155 615 b 129 585 113 560 98 522 b 89 440 95 374 105 289 b 146 290 189 301 241 284 b 287 270 324 232 322 181 b 319 116 265 84 202 82 b 164 80 117 95 94 104 b 72 75 61 56 46 19 b 70 8 131 -10 177 -8 b 246 -6 288 20 327 74 b 379 144 402 248 350 313 b 302 374 206 374 156 372 b 153 401 151 422 152 488 l 350 488 b 368 511 387 550 395 578 l 165 578 b 159 587 158 598 155 615 z"}}}
